<svg width="110" height="100" viewBox="0 0 110 100" fill="none" xmlns="http://www.w3.org/2000/svg">
<path fill-rule="evenodd" clip-rule="evenodd" d="M77.7682 46.3637C78.6827 46.8209 79.2695 47.8211 79.2695 48.9227V77.7729C79.2695 79.1902 78.1206 80.3391 76.7033 80.3391C75.286 80.3391 74.1371 79.1902 74.1371 77.7729V55.0894L63.0904 65.6014C62.3028 66.351 61.1795 66.5034 60.2489 65.987L49.65 60.1062V72.4662C49.65 73.8835 48.501 75.0324 47.0838 75.0324C45.6665 75.0324 44.5176 73.8835 44.5176 72.4662V55.5299C44.5176 54.5526 44.9804 53.6454 45.7401 53.1337C46.4998 52.622 47.4473 52.5792 48.2428 53.0206L61.0281 60.1145L75.0209 46.7989C75.7798 46.0767 76.8537 45.9066 77.7682 46.3637Z" fill="#385A64"/>
<path fill-rule="evenodd" clip-rule="evenodd" d="M60.5835 44.862C65.7534 44.862 70.3312 40.4804 70.3312 34.595C70.3312 28.7096 65.7534 24.328 60.5835 24.328C55.4135 24.328 50.8357 28.7096 50.8357 34.595C50.8357 40.4804 55.4135 44.862 60.5835 44.862ZM60.5835 49.9539C68.8221 49.9539 75.5009 43.0775 75.5009 34.595C75.5009 26.1125 68.8221 19.2361 60.5835 19.2361C52.3448 19.2361 45.666 26.1125 45.666 34.595C45.666 43.0775 52.3448 49.9539 60.5835 49.9539Z" fill="#385A64"/>
<path fill-rule="evenodd" clip-rule="evenodd" d="M15.2216 64.2147C13.794 64.2147 12.6367 63.0574 12.6367 61.6298V15.5974C12.6367 14.1699 13.794 13.0126 15.2216 13.0126C16.6491 13.0126 17.8064 14.1699 17.8064 15.5974V61.6298C17.8064 63.0574 16.6491 64.2147 15.2216 64.2147Z" fill="#385A64"/>
<path fill-rule="evenodd" clip-rule="evenodd" d="M34.7509 69.5895C33.3233 69.5895 32.166 68.4322 32.166 67.0046V3.15053C32.166 1.72295 33.3233 0.565674 34.7509 0.565674C36.1784 0.565674 37.3357 1.72296 37.3357 3.15053V67.0046C37.3357 68.4322 36.1784 69.5895 34.7509 69.5895Z" fill="#385A64"/>
<path fill-rule="evenodd" clip-rule="evenodd" d="M35.0626 36.7279H17.4551V31.636H35.0626V36.7279Z" fill="#385A64"/>
<path fill-rule="evenodd" clip-rule="evenodd" d="M90.1602 72.0564C87.951 72.0564 86.1602 70.2656 86.1602 68.0564V26.0651C86.1602 23.8559 87.951 22.0651 90.1602 22.0651H91.3299V72.0564H90.1602Z" fill="#385A64"/>
<path fill-rule="evenodd" clip-rule="evenodd" d="M107.22 24.611C107.22 26.0171 106.08 27.157 104.674 27.157H92.2803C90.8742 27.157 89.7344 26.0171 89.7344 24.611C89.7344 23.2049 90.8742 22.0651 92.2803 22.0651H104.674C106.08 22.0651 107.22 23.2049 107.22 24.611Z" fill="#385A64"/>
<path fill-rule="evenodd" clip-rule="evenodd" d="M101.096 43.5643C101.096 44.9704 99.9558 46.1102 98.5497 46.1102H92.1534C90.7473 46.1102 89.6074 44.9704 89.6074 43.5643C89.6074 42.1582 90.7473 41.0183 92.1534 41.0183H98.5497C99.9558 41.0183 101.096 42.1582 101.096 43.5643Z" fill="#385A64"/>
<path fill-rule="evenodd" clip-rule="evenodd" d="M107.22 69.5897C107.22 70.9958 106.08 72.1356 104.674 72.1356H92.2803C90.8742 72.1356 89.7344 70.9958 89.7344 69.5897C89.7344 68.1836 90.8742 67.0437 92.2803 67.0437H104.674C106.08 67.0437 107.22 68.1836 107.22 69.5897Z" fill="#385A64"/>
<path fill-rule="evenodd" clip-rule="evenodd" d="M6.661 81.1808C6.30114 80.9859 5.95701 80.7954 5.63303 80.6108C4.39119 79.9031 4.18918 78.3037 5.0955 77.1984C5.98301 76.1162 7.62441 75.8809 8.85113 76.5549C8.94788 76.608 9.04795 76.6626 9.15136 76.7186C10.4948 77.446 12.2705 78.3414 14.4032 79.3433C18.6673 81.3465 24.307 83.7513 30.683 86.0659C43.4947 90.7168 59.0216 94.9081 72.2776 94.9081C85.5862 94.9081 93.8215 91.8118 98.8804 88.0939C103.576 84.6432 107.282 80.6478 108.399 77.5092C108.532 77.1352 108.933 76.9099 109.31 77.0337C109.645 77.1435 109.841 77.4893 109.746 77.8282C108.543 82.095 104.768 88.7423 98.8804 93.0695C92.7127 97.6023 86.3971 100 72.2776 100C58.1054 100 41.8961 95.5633 28.8952 90.8436C22.3648 88.473 16.5791 86.0069 12.1777 83.9392C9.97762 82.9057 8.11055 81.9656 6.661 81.1808Z" fill="#BF5F56"/>
<path d="M4.79842 75.7309C3.61543 76.8961 2.96043 78.3844 2.83343 79.9074C2.60541 82.6418 5.94526 82.3431 6.97412 79.7935L7.01644 79.6887C7.39442 78.752 8.15754 78.0169 9.11666 77.6655C11.5861 76.7607 11.9271 73.6645 9.29485 73.7795C7.66014 73.851 6.04666 74.5015 4.79842 75.7309Z" fill="#BF5F56"/>
<path d="M108.88 2.64026C109.166 2.64026 109.421 2.75293 109.645 2.97827C109.881 3.19109 109.999 3.46651 109.999 3.80452C109.999 3.9172 109.981 4.03613 109.943 4.16132C109.918 4.27399 109.869 4.38666 109.794 4.49933L105.56 10.6023L105.896 9.30662V14.696C105.896 15.0215 105.784 15.297 105.56 15.5223C105.349 15.7351 105.1 15.8415 104.814 15.8415C104.504 15.8415 104.236 15.7351 104.012 15.5223C103.801 15.297 103.695 15.0215 103.695 14.696V9.45685L103.845 10.0578L99.8162 4.66833C99.6918 4.50559 99.6048 4.3491 99.5551 4.19887C99.5053 4.04864 99.4805 3.91094 99.4805 3.78575C99.4805 3.44773 99.611 3.17232 99.8721 2.95949C100.133 2.74667 100.401 2.64026 100.674 2.64026C101.022 2.64026 101.327 2.81552 101.588 3.16606L105.169 8.14235L104.647 8.06724L107.948 3.20361C108.209 2.82804 108.52 2.64026 108.88 2.64026Z" fill="#F2B705"/>
<path d="M93.0868 0.439575C93.834 0.439575 94.5309 0.628165 95.1776 1.00534C95.8386 1.38252 96.3703 1.89172 96.7726 2.53292C97.175 3.17412 97.3762 3.89077 97.3762 4.68284C97.3762 5.46235 97.175 6.1727 96.7726 6.8139C96.3703 7.45511 95.8386 7.97059 95.1776 8.36034C94.5309 8.73752 93.834 8.92611 93.0868 8.92611H89.1207L89.3362 8.58665V12.4905C89.3362 12.8173 89.2213 13.0939 88.9914 13.3202C88.7614 13.534 88.4597 13.6408 88.0861 13.6408C87.7268 13.6408 87.4322 13.534 87.2023 13.3202C86.9724 13.0939 86.8574 12.8173 86.8574 12.4905V1.58997C86.8574 1.26308 86.9796 0.992772 87.2239 0.779036C87.4825 0.552729 87.7987 0.439575 88.1723 0.439575H93.0868ZM93.0868 6.77619C93.3598 6.77619 93.6256 6.6756 93.8843 6.47444C94.143 6.27328 94.3585 6.01554 94.5309 5.70123C94.7034 5.37434 94.7896 5.03488 94.7896 4.68284C94.7896 4.31824 94.7034 3.97877 94.5309 3.66446C94.3585 3.35014 94.143 3.09869 93.8843 2.9101C93.6256 2.70894 93.3598 2.60836 93.0868 2.60836H89.0776L89.3362 2.26889V7.07793L89.0991 6.77619H93.0868Z" fill="#F2B705"/>
<path d="M79.9383 2.63977C80.6856 2.63977 81.3825 2.82836 82.0292 3.20554C82.6902 3.58272 83.2219 4.09191 83.6242 4.73312C84.0266 5.37432 84.2277 6.09096 84.2277 6.88304C84.2277 7.66254 84.0266 8.3729 83.6242 9.0141C83.2219 9.6553 82.6902 10.1708 82.0292 10.5605C81.3825 10.9377 80.6856 11.1263 79.9383 11.1263H75.9722L76.1878 10.7868V14.6906C76.1878 15.0175 76.0728 15.2941 75.8429 15.5204C75.613 15.7342 75.3112 15.841 74.9376 15.841C74.5784 15.841 74.2838 15.7342 74.0539 15.5204C73.8239 15.2941 73.709 15.0175 73.709 14.6906V3.79017C73.709 3.46328 73.8311 3.19297 74.0754 2.97923C74.3341 2.75292 74.6502 2.63977 75.0238 2.63977H79.9383ZM79.9383 8.97638C80.2114 8.97638 80.4772 8.8758 80.7359 8.67464C80.9945 8.47348 81.2101 8.21574 81.3825 7.90142C81.5549 7.57453 81.6412 7.23507 81.6412 6.88304C81.6412 6.51843 81.5549 6.17897 81.3825 5.86465C81.2101 5.55034 80.9945 5.29888 80.7359 5.1103C80.4772 4.90913 80.2114 4.80855 79.9383 4.80855H75.9291L76.1878 4.46909V9.27813L75.9507 8.97638H79.9383Z" fill="#F2B705"/>
<path d="M66.5577 3.00218L62.8872 12.4568C62.8079 12.6926 62.6833 12.8787 62.5134 13.0152C62.3548 13.1392 62.1792 13.2013 61.9866 13.2013C61.6807 13.2013 61.4541 13.1082 61.3068 12.9221C61.1596 12.736 61.0859 12.5064 61.0859 12.2335C61.0859 12.1218 61.1029 12.0039 61.1369 11.8799L65.3682 0.750187C65.4588 0.502034 65.5948 0.309715 65.776 0.17323C65.9686 0.0367461 66.1726 -0.0190885 66.3878 0.00572648C66.5917 0.00572648 66.7786 0.0739686 66.9486 0.210453C67.1298 0.33453 67.2601 0.514441 67.3394 0.750187L71.5197 11.6565C71.5764 11.8178 71.6047 11.9667 71.6047 12.1032C71.6047 12.4382 71.5027 12.705 71.2988 12.9035C71.1062 13.102 70.891 13.2013 70.6531 13.2013C70.4492 13.2013 70.2622 13.133 70.0923 12.9965C69.9337 12.8601 69.8091 12.6739 69.7185 12.4382L66.0649 3.11385L66.5577 3.00218ZM63.414 10.1862L64.3486 8.04589H68.9368L69.2596 10.1862H63.414Z" fill="#F2B705"/>
<path d="M48.8589 0.0166016C49.1547 0.0166016 49.4135 0.129755 49.6353 0.356063C49.8695 0.569798 49.9866 0.84011 49.9866 1.167V12.0675C49.9866 12.3944 49.8695 12.671 49.6353 12.8973C49.4012 13.111 49.13 13.2179 48.8219 13.2179C48.4769 13.2179 48.1996 13.111 47.99 12.8973C47.7805 12.671 47.6758 12.3944 47.6758 12.0675V1.167C47.6758 0.84011 47.7867 0.569798 48.0085 0.356063C48.2304 0.129755 48.5138 0.0166016 48.8589 0.0166016ZM57.0484 0.0166016C57.3935 0.0166016 57.6708 0.129755 57.8803 0.356063C58.0898 0.569798 58.1945 0.84011 58.1945 1.167V12.0675C58.1945 12.3944 58.0836 12.671 57.8618 12.8973C57.6523 13.111 57.3688 13.2179 57.0114 13.2179C56.7156 13.2179 56.4507 13.111 56.2165 12.8973C55.9947 12.671 55.8837 12.3944 55.8837 12.0675V1.167C55.8837 0.84011 56.0008 0.569798 56.235 0.356063C56.4691 0.129755 56.7403 0.0166016 57.0484 0.0166016ZM48.8035 5.50456H52.9259H57.0484V7.67334H48.8035V5.50456Z" fill="#F2B705"/>
</svg>
