<svg width="41" height="42" viewBox="0 0 41 42" fill="none" xmlns="http://www.w3.org/2000/svg">
<path d="M20.7028 0.947174C16.0535 0.978361 11.5595 2.62419 7.9898 5.60308C4.42007 8.58196 1.99642 12.7087 1.13355 17.2774C0.270672 21.846 1.0222 26.5724 3.25954 30.6481C5.49688 34.7238 9.08098 37.8953 13.3986 39.6201C13.1084 37.7214 13.1084 35.7896 13.3986 33.8909L15.7632 23.8638C15.3879 22.9561 15.2015 21.9814 15.2153 20.9993C15.2153 18.2201 16.834 16.1284 18.8403 16.1284C19.2036 16.1229 19.5637 16.196 19.8961 16.3427C20.2285 16.4894 20.5253 16.7062 20.7661 16.9782C21.0069 17.2503 21.186 17.5712 21.2913 17.9189C21.3965 18.2667 21.4253 18.6331 21.3757 18.993C21.3757 20.1013 20.9215 21.568 20.4465 23.1055C20.1861 23.9534 19.9174 24.8243 19.7132 25.668C19.5896 26.1115 19.5748 26.5782 19.6699 27.0287C19.765 27.4791 19.9673 27.9 20.2596 28.2557C20.5519 28.6113 20.9256 28.8913 21.3491 29.0719C21.7726 29.2525 22.2333 29.3283 22.6924 29.293C26.2444 29.293 28.9944 25.5243 28.9944 20.1118C29.0296 19.0117 28.8351 17.9164 28.4236 16.8956C28.0121 15.8748 27.3924 14.951 26.6041 14.1829C25.8159 13.4148 24.8762 12.8193 23.8451 12.4344C22.814 12.0495 21.714 11.8835 20.6153 11.9472C19.4421 11.8967 18.2708 12.0848 17.1724 12.5002C16.074 12.9156 15.0714 13.5495 14.2251 14.3636C13.3788 15.1777 12.7066 16.1551 12.249 17.2366C11.7915 18.3181 11.5582 19.4812 11.5632 20.6555C11.5476 22.2914 12.0492 23.8904 12.9965 25.2243C13.065 25.301 13.1137 25.3933 13.1384 25.4931C13.1631 25.593 13.163 25.6974 13.1382 25.7972C12.9819 26.4284 12.6382 27.8034 12.5799 28.0743C12.5236 28.3451 12.2799 28.518 11.9069 28.3451C9.40069 27.1722 7.84027 23.5201 7.84027 20.5701C7.84027 14.2534 12.4382 8.43884 21.0903 8.43884C28.034 8.43884 33.4486 13.393 33.4486 20.0263C33.4486 26.9284 29.1528 32.4847 23.0361 32.4847C22.1395 32.5157 21.2493 32.3224 20.4464 31.9222C19.6435 31.522 18.9532 30.9276 18.4382 30.193L17.1924 34.9638C16.5952 36.8173 15.7575 38.5845 14.7007 40.2201C16.6478 40.7958 18.6704 41.076 20.7007 41.0513C26.0188 41.0513 31.1192 38.9387 34.8797 35.1782C38.6401 31.4177 40.7528 26.3174 40.7528 20.9993C40.7528 15.6811 38.6401 10.5808 34.8797 6.82029C31.1192 3.0598 26.0188 0.947174 20.7007 0.947174H20.7028Z" fill="#F2F2F2"/>
</svg>
