<svg width="41" height="42" viewBox="0 0 41 42" fill="none" xmlns="http://www.w3.org/2000/svg">
<path d="M12.1935 0.166687H29.1062C35.5492 0.166687 40.7841 5.58335 40.7841 12.25V29.75C40.7841 32.9547 39.5538 36.0282 37.3637 38.2942C35.1737 40.5603 32.2034 41.8334 29.1062 41.8334H12.1935C5.75053 41.8334 0.515625 36.4167 0.515625 29.75V12.25C0.515625 9.04532 1.74597 5.97188 3.93599 3.70581C6.12601 1.43975 9.09632 0.166687 12.1935 0.166687ZM11.7908 4.33335C9.86842 4.33335 8.02478 5.12353 6.66546 6.53005C5.30613 7.93658 4.54247 9.84423 4.54247 11.8334V30.1667C4.54247 34.3125 7.78409 37.6667 11.7908 37.6667H29.5089C31.4313 37.6667 33.2749 36.8765 34.6343 35.47C35.9936 34.0635 36.7573 32.1558 36.7573 30.1667V11.8334C36.7573 7.68752 33.5156 4.33335 29.5089 4.33335H11.7908ZM31.2203 7.45835C31.8878 7.45835 32.528 7.73272 33 8.2211C33.472 8.70947 33.7371 9.37185 33.7371 10.0625C33.7371 10.7532 33.472 11.4156 33 11.9039C32.528 12.3923 31.8878 12.6667 31.2203 12.6667C30.5528 12.6667 29.9127 12.3923 29.4407 11.9039C28.9687 11.4156 28.7036 10.7532 28.7036 10.0625C28.7036 9.37185 28.9687 8.70947 29.4407 8.2211C29.9127 7.73272 30.5528 7.45835 31.2203 7.45835ZM20.6499 10.5834C23.3198 10.5834 25.8804 11.6808 27.7684 13.6343C29.6563 15.5878 30.717 18.2373 30.717 21C30.717 23.7627 29.6563 26.4122 27.7684 28.3657C25.8804 30.3192 23.3198 31.4167 20.6499 31.4167C17.9799 31.4167 15.4193 30.3192 13.5313 28.3657C11.6434 26.4122 10.5827 23.7627 10.5827 21C10.5827 18.2373 11.6434 15.5878 13.5313 13.6343C15.4193 11.6808 17.9799 10.5834 20.6499 10.5834ZM20.6499 14.75C19.0479 14.75 17.5115 15.4085 16.3787 16.5806C15.246 17.7527 14.6096 19.3424 14.6096 21C14.6096 22.6576 15.246 24.2473 16.3787 25.4194C17.5115 26.5915 19.0479 27.25 20.6499 27.25C22.2518 27.25 23.7882 26.5915 24.921 25.4194C26.0538 24.2473 26.6901 22.6576 26.6901 21C26.6901 19.3424 26.0538 17.7527 24.921 16.5806C23.7882 15.4085 22.2518 14.75 20.6499 14.75Z" fill="#F2F2F2"/>
</svg>
